<svg xmlns="http://www.w3.org/2000/svg" width="1440" height="1616" fill="none"><g clip-path="url(#a)"><path fill="url(#b)" d="M0 1616h1440v-533H0z" opacity=".4"/><g opacity=".2" style="mix-blend-mode:plus-lighter"><path fill="#A3A3A3" fill-opacity=".2" fill-rule="evenodd" d="M377.785 745.297h239.351v239.351h-25.644c-118.027 0-213.707-95.679-213.707-213.706zm-23.351 0H115.082v239.351h25.645c118.027 0 213.707-95.679 213.707-213.706zM80.055 984.648h-236.433V745.297h25.332c116.588 0 211.1 95.68 211.1 213.707v25.644zm-2.918-277.296h-239.352V468h25.645c118.027 0 213.707 95.68 213.707 213.707zm271.457 0H112.161V468h25.332c116.588 0 211.101 95.68 211.101 213.707z" clip-rule="evenodd"/><path stroke="#A3A3A3" stroke-dasharray="4 4" stroke-opacity=".3" stroke-width="5" d="M377.868 675.697a222 222 0 0 0-.074 4.002l2.5.023q-.009.991-.009 1.985v2.137h-2.5v4.274h2.5v4.274h-2.5v4.274h2.5v4.274h-2.5v3.912h1.995v.362h.505v2.138h3.484v-2.5h3.989v2.5h3.99v-2.5h3.989v2.5h3.989v-2.5h3.989v2.5h3.989v-2.5h3.989v2.5h3.99v-2.5h3.989v2.5h3.989v-2.5h3.989v2.5h3.989v-2.5h3.989v2.5h3.99v-2.5h3.989v2.5h3.989v-2.5h3.989v2.5h3.989v-2.5h3.99v2.5h3.989v-2.5h3.989v2.5h3.989v-2.5h3.989v2.5h3.989v-2.5h3.99v2.5h3.989v-2.5h3.989v2.5h3.989v-2.5h3.989v2.5h3.99v-2.5h3.989v2.5h3.989v-2.5h3.989v2.5h3.989v-2.5h3.99v2.5h3.989v-2.5h3.989v2.5h3.989v-2.5h3.989v2.5h3.989v-2.5h3.99v2.5h3.989v-2.5h3.989v2.5h3.989v-2.5h3.989v2.5h3.99v-2.5h3.989v2.5h3.989v-2.5h3.989v2.5h3.989v-2.5h3.99v2.5h3.989v-2.5h3.989v2.5h3.989v-2.5h3.989v2.5h3.99v-2.5h3.989v2.5h3.483v-1.995h.506v-.505h1.994v-3.484h-2.5v-3.99h2.5v-3.989h-2.5V689.4h2.5v-3.989h-2.5v-3.989h2.5v-3.99h-2.5v-3.989h2.5v-3.989h-2.5v-3.989h2.5v-3.989h-2.5v-3.989h2.5v-3.99h-2.5v-3.989h2.5v-3.989h-2.5v-3.989h2.5v-3.989h-2.5v-3.99h2.5v-3.989h-2.5v-3.989h2.5v-3.989h-2.5v-3.989h2.5v-3.989h-2.5v-3.99h2.5v-3.989h-2.5v-3.989h2.5v-3.989h-2.5v-3.989h2.5v-3.99h-2.5v-3.989h2.5v-3.989h-2.5v-3.989h2.5v-3.989h-2.5v-3.989h2.5v-3.99h-2.5v-3.989h2.5v-3.989h-2.5v-3.989h2.5v-3.989h-2.5v-3.99h2.5V541.8h-2.5v-3.989h2.5v-3.989h-2.5v-3.989h2.5v-3.99h-2.5v-3.989h2.5v-3.989h-2.5v-3.989h2.5v-3.989h-2.5v-3.989h2.5v-3.99h-2.5v-3.989h2.5v-3.989h-2.5v-3.989h2.5v-3.989h-2.5v-3.99h2.5v-3.989h-2.5v-3.989h2.5V470.5h-2.137v-.505h-.363V468h-3.911v2.5h-4.274V468h-4.274v2.5h-4.274V468h-4.274v2.5h-2.137q-.994 0-1.985.009l-.023-2.5q-2.005.019-4.002.074l.069 2.499q-1.974.055-3.938.145l-.115-2.497q-2.004.092-3.997.221l.161 2.495q-1.975.127-3.941.291l-.207-2.491q-1.99.166-3.968.367l.254 2.487q-1.974.202-3.937.439l-.3-2.482q-1.986.24-3.961.517l.346 2.476q-1.956.274-3.902.583l-.393-2.469q-1.979.315-3.947.666l.439 2.461q-1.944.348-3.876.729l-.485-2.452q-1.964.389-3.915.813l.531 2.443q-1.933.42-3.853.876l-.577-2.433q-1.943.462-3.872.957l.623 2.422q-1.919.493-3.823 1.021l-.668-2.409a214 214 0 0 0-3.84 1.105l.714 2.396q-1.894.564-3.773 1.162l-.758-2.382q-1.908.608-3.8 1.25l.803 2.367q-1.87.635-3.724 1.303l-.848-2.352a218 218 0 0 0-3.749 1.392l.892 2.336q-1.846.705-3.676 1.444l-.936-2.319a213 213 0 0 0-3.688 1.53l.979 2.3a212 212 0 0 0-3.623 1.583l-1.022-2.281a213 213 0 0 0-3.63 1.668l1.065 2.261a212 212 0 0 0-3.557 1.717l-1.108-2.242a221 221 0 0 0-3.568 1.805l1.15 2.22a211 211 0 0 0-3.488 1.847l-1.19-2.198q-1.76.953-3.499 1.937l1.232 2.176a207 207 0 0 0-3.419 1.978l-1.272-2.152a211 211 0 0 0-3.42 2.065l1.312 2.128a221 221 0 0 0-3.344 2.105l-1.352-2.103q-1.68 1.081-3.34 2.192l1.391 2.077a208 208 0 0 0-3.263 2.229l-1.429-2.051a220 220 0 0 0-3.258 2.315l1.468 2.024a215 215 0 0 0-3.176 2.348l-1.505-1.997a228 228 0 0 0-3.17 2.436l1.542 1.968a215 215 0 0 0-3.086 2.465l-1.578-1.939a221 221 0 0 0-3.077 2.551l1.614 1.91q-1.508 1.275-2.993 2.578l-1.649-1.879a221 221 0 0 0-2.979 2.664l1.684 1.848a217 217 0 0 0-2.895 2.687l-1.718-1.816q-1.452 1.373-2.878 2.773l1.751 1.784a216 216 0 0 0-2.793 2.793l-1.784-1.751q-1.4 1.426-2.773 2.878l1.816 1.718q-1.358 1.436-2.688 2.895l-1.847-1.683q-1.347 1.476-2.664 2.978l1.879 1.649q-1.303 1.485-2.578 2.994l-1.91-1.614q-1.29 1.525-2.551 3.076l1.939 1.578a215 215 0 0 0-2.465 3.086l-1.968-1.541a222 222 0 0 0-2.436 3.169l1.997 1.505a215 215 0 0 0-2.348 3.176l-2.024-1.468a218 218 0 0 0-2.315 3.258l2.051 1.429a213 213 0 0 0-2.229 3.263l-2.077-1.391a218 218 0 0 0-2.192 3.34l2.103 1.352a213 213 0 0 0-2.105 3.344l-2.128-1.312a211 211 0 0 0-2.065 3.42l2.152 1.272a211 211 0 0 0-1.978 3.419l-2.176-1.232a216 216 0 0 0-1.937 3.499l2.198 1.19a215 215 0 0 0-1.847 3.488l-2.22-1.149a209 209 0 0 0-1.805 3.567l2.241 1.108a220 220 0 0 0-1.716 3.557l-2.262-1.065a221 221 0 0 0-1.667 3.63l2.281 1.022a212 212 0 0 0-1.583 3.623l-2.3-.979a213 213 0 0 0-1.53 3.688l2.319.936a212 212 0 0 0-1.445 3.676l-2.335-.892a218 218 0 0 0-1.392 3.75l2.352.847q-.668 1.854-1.303 3.724l-2.367-.803a211 211 0 0 0-1.25 3.8l2.382.759a206 206 0 0 0-1.162 3.772l-2.396-.714a214 214 0 0 0-1.105 3.84l2.409.668q-.528 1.905-1.021 3.823l-2.422-.623q-.495 1.93-.957 3.872l2.433.577q-.456 1.92-.876 3.853l-2.443-.531a212 212 0 0 0-.813 3.915l2.452.486a212 212 0 0 0-.729 3.876l-2.461-.439a212 212 0 0 0-.666 3.947l2.469.392a208 208 0 0 0-.583 3.903l-2.476-.347a215 215 0 0 0-.517 3.961l2.482.3a221 221 0 0 0-.439 3.937l-2.487-.254a216 216 0 0 0-.367 3.968l2.491.207a213 213 0 0 0-.291 3.942l-2.495-.162q-.13 1.994-.221 3.997l2.497.115a214 214 0 0 0-.145 3.938zM-159.214 1340.3a221 221 0 0 1-.074-4l2.5-.02c-.006-.66-.009-1.32-.009-1.99v-2.13h-2.5v-4.28h2.5v-4.27h-2.5v-4.28h2.5v-4.27h-2.5v-3.91h1.995v-.36h.505v-2.14h3.484v2.5h3.989v-2.5h3.989v2.5h3.99v-2.5h3.989v2.5h3.989v-2.5h3.989v2.5h3.989v-2.5h3.99v2.5h3.989v-2.5h3.989v2.5h3.989v-2.5h3.989v2.5h3.989v-2.5h3.99v2.5h3.989v-2.5h3.989v2.5h3.99v-2.5h3.988v2.5h3.99v-2.5h3.989v2.5h3.989v-2.5h3.99v2.5h3.988v-2.5h3.99v2.5h3.989v-2.5h3.989v2.5h3.989v-2.5h3.99v2.5h3.988v-2.5h3.99v2.5h3.989v-2.5h3.989v2.5h3.99v-2.5h3.988v2.5h3.99v-2.5h3.989v2.5h3.989v-2.5h3.99v2.5h3.988v-2.5h3.99v2.5h3.989v-2.5h3.989v2.5h3.989v-2.5h3.99v2.5H26.2v-2.5h3.99v2.5h3.989v-2.5h3.989v2.5h3.99v-2.5h3.988v2.5h3.99v-2.5h3.989v2.5h3.989v-2.5h3.99v2.5h3.988v-2.5h3.99v2.5h3.989v-2.5h3.484v1.99h.505v.51h1.995v3.48h-2.5v3.99h2.5v3.99h-2.5v3.99h2.5v3.99h-2.5v3.99h2.5v3.99h-2.5v3.99h2.5v3.99h-2.5v3.99h2.5v3.98h-2.5v3.99h2.5v3.99h-2.5v3.99h2.5v3.99h-2.5v3.99h2.5v3.99h-2.5v3.99h2.5v3.99h-2.5v3.99h2.5v3.99h-2.5v3.99h2.5v3.98h-2.5v3.99h2.5v3.99h-2.5v3.99h2.5v3.99h-2.5v3.99h2.5v3.99h-2.5v3.99h2.5v3.99h-2.5v3.99h2.5v3.99h-2.5v3.99h2.5v3.98h-2.5v3.99h2.5v3.99h-2.5v3.99h2.5v3.99h-2.5v3.99h2.5v3.99h-2.5v3.99h2.5v3.99h-2.5v3.99h2.5v3.99h-2.5v3.99h2.5v3.98h-2.5v3.99h2.5v3.99h-2.5v3.99h2.5v3.99h-2.5v3.99h2.5v3.99h-2.5v3.99h2.5v3.99h-2.5v3.99h2.5v3.99h-2.5v3.99h2.5v3.48h-2.138v.51h-.362v1.99h-3.912v-2.5H69.37v2.5h-4.274v-2.5h-4.274v2.5h-4.274v-2.5H54.41c-.663 0-1.324 0-1.985-.01l-.023 2.5c-1.337-.01-2.671-.04-4.002-.07l.069-2.5q-1.974-.06-3.938-.15l-.115 2.5c-1.336-.06-2.668-.13-3.997-.22l.161-2.5c-1.317-.08-2.63-.18-3.94-.29l-.208 2.49q-1.99-.165-3.968-.36l.254-2.49c-1.316-.13-2.629-.28-3.937-.44l-.3 2.48q-1.987-.24-3.961-.51l.346-2.48c-1.304-.18-2.605-.38-3.902-.58l-.393 2.47c-1.32-.21-2.635-.44-3.947-.67l.44-2.46c-1.297-.23-2.589-.48-3.877-.73l-.485 2.45q-1.964-.39-3.915-.81l.53-2.44c-1.288-.28-2.572-.58-3.852-.88l-.577 2.43c-1.296-.3-2.586-.62-3.872-.95l.623-2.43a164 164 0 0 1-3.823-1.02l-.669 2.41c-1.284-.35-2.564-.72-3.839-1.1l.714-2.4c-1.263-.37-2.52-.76-3.773-1.16l-.758 2.38c-1.272-.4-2.539-.82-3.8-1.25l.803-2.37a164 164 0 0 1-3.724-1.3l-.848 2.35a167 167 0 0 1-3.749-1.39l.892-2.33c-1.23-.47-2.456-.96-3.676-1.45l-.936 2.32q-1.853-.75-3.688-1.53l.979-2.3a226 226 0 0 1-3.623-1.58l-1.022 2.28c-1.216-.55-2.426-1.1-3.63-1.67l1.065-2.26c-1.192-.56-2.378-1.13-3.557-1.72l-1.108 2.24a225 225 0 0 1-3.568-1.8l1.15-2.22c-1.17-.61-2.332-1.22-3.488-1.85l-1.19 2.2a223 223 0 0 1-3.5-1.94l1.232-2.17q-1.719-.975-3.418-1.98l-1.272 2.15a339 339 0 0 1-3.42-2.06l1.312-2.13a214 214 0 0 1-3.344-2.11l-1.352 2.11c-1.12-.72-2.234-1.46-3.34-2.2l1.39-2.07a316 316 0 0 1-3.262-2.23l-1.43 2.05c-1.093-.76-2.178-1.53-3.257-2.32l1.468-2.02c-1.067-.77-2.125-1.56-3.176-2.35l-1.505 2a210 210 0 0 1-3.17-2.44l1.542-1.97a204 204 0 0 1-3.086-2.46l-1.578 1.94a207 207 0 0 1-3.077-2.55l1.614-1.91q-1.508-1.275-2.993-2.58l-1.649 1.88c-1.001-.88-1.994-1.77-2.979-2.66l1.684-1.85a278 278 0 0 1-2.895-2.69l-1.718 1.82c-.968-.92-1.927-1.84-2.878-2.78l1.751-1.78q-1.41-1.38-2.793-2.79l-1.784 1.75q-1.4-1.425-2.773-2.88l1.816-1.72c-.905-.96-1.801-1.92-2.688-2.89l-1.848 1.68c-.897-.99-1.785-1.98-2.663-2.98l1.879-1.65c-.869-.99-1.728-1.99-2.578-2.99l-1.91 1.61c-.86-1.01-1.71-2.04-2.551-3.07l1.939-1.58q-1.247-1.53-2.465-3.09l-1.968 1.54a201 201 0 0 1-2.436-3.17l1.997-1.5q-1.188-1.575-2.348-3.18l-2.024 1.47a191 191 0 0 1-2.315-3.26l2.051-1.43a187 187 0 0 1-2.229-3.26l-2.077 1.39c-.741-1.1-1.471-2.22-2.192-3.34l2.103-1.35c-.712-1.11-1.413-2.22-2.105-3.34l-2.128 1.31c-.699-1.13-1.387-2.28-2.065-3.42l2.152-1.27q-1.005-1.71-1.978-3.42l-2.176 1.23c-.656-1.16-1.302-2.33-1.937-3.5l2.198-1.19c-.626-1.16-1.242-2.32-1.847-3.49l-2.22 1.15q-.919-1.77-1.805-3.57l2.241-1.1c-.582-1.18-1.154-2.37-1.716-3.56l-2.262 1.06q-.85-1.8-1.668-3.63l2.282-1.02c-.539-1.2-1.066-2.41-1.583-3.62l-2.3.98a220 220 0 0 1-1.53-3.69l2.319-.94c-.493-1.22-.974-2.44-1.445-3.67l-2.335.89a193 193 0 0 1-1.392-3.75l2.352-.85q-.668-1.845-1.303-3.72l-2.367.8c-.428-1.26-.845-2.53-1.25-3.8l2.382-.76c-.399-1.25-.786-2.51-1.162-3.77l-2.396.71c-.38-1.27-.748-2.55-1.105-3.83l2.409-.67a211 211 0 0 1-1.021-3.83l-2.422.63q-.496-1.935-.957-3.87l2.433-.58c-.304-1.28-.596-2.57-.876-3.86l-2.443.54c-.283-1.3-.554-2.61-.813-3.92l2.452-.48c-.254-1.29-.498-2.58-.729-3.88l-2.461.44c-.234-1.31-.456-2.63-.666-3.95l2.469-.39q-.31-1.95-.583-3.9l-2.476.34q-.276-1.965-.517-3.96l2.482-.3q-.238-1.965-.439-3.93l-2.487.25c-.134-1.32-.257-2.64-.367-3.97l2.491-.21c-.109-1.31-.206-2.62-.291-3.94l-2.495.16q-.13-1.995-.221-3.99l2.497-.12c-.06-1.31-.109-2.62-.145-3.94zm770.428 176.05c.037 1.33.061 2.66.074 4l-2.5.02c.006.66.009 1.32.009 1.99v2.13h2.5v4.28h-2.5v4.27h2.5v4.27h-2.5v4.28h2.5v3.91h-1.995v.36h-.505v2.14h-3.484v-2.5h-3.989v2.5h-3.989v-2.5h-3.99v2.5h-3.989v-2.5h-3.989v2.5h-3.989v-2.5h-3.989v2.5h-3.99v-2.5h-3.989v2.5h-3.989v-2.5h-3.989v2.5h-3.989v-2.5h-3.989v2.5h-3.99v-2.5h-3.989v2.5h-3.989v-2.5h-3.989v2.5h-3.989v-2.5h-3.99v2.5h-3.989v-2.5h-3.989v2.5h-3.989v-2.5h-3.989v2.5h-3.989v-2.5h-3.99v2.5h-3.989v-2.5h-3.989v2.5h-3.989v-2.5h-3.989v2.5h-3.99v-2.5h-3.989v2.5h-3.989v-2.5h-3.989v2.5h-3.989v-2.5h-3.99v2.5h-3.989v-2.5h-3.989v2.5h-3.989v-2.5h-3.989v2.5h-3.989v-2.5h-3.99v2.5h-3.989v-2.5h-3.989v2.5h-3.989v-2.5H425.8v2.5h-3.99v-2.5h-3.989v2.5h-3.989v-2.5h-3.989v2.5h-3.989v-2.5h-3.99v2.5h-3.989v-2.5h-3.989v2.5h-3.989v-2.5h-3.989v2.5h-3.989v-2.5h-3.99v2.5h-3.483v-1.99h-.506v-.51h-1.994v-3.48h2.5v-3.99h-2.5v-3.99h2.5v-3.99h-2.5v-3.99h2.5v-3.99h-2.5v-3.99h2.5v-3.99h-2.5v-3.99h2.5v-3.99h-2.5v-3.99h2.5v-3.98h-2.5v-3.99h2.5v-3.99h-2.5v-3.99h2.5v-3.99h-2.5v-3.99h2.5v-3.99h-2.5v-3.99h2.5v-3.99h-2.5v-3.99h2.5v-3.99h-2.5v-3.99h2.5v-3.99h-2.5v-3.98h2.5v-3.99h-2.5v-3.99h2.5v-3.99h-2.5v-3.99h2.5v-3.99h-2.5v-3.99h2.5v-3.99h-2.5v-3.99h2.5v-3.99h-2.5v-3.99h2.5v-3.99h-2.5v-3.98h2.5v-3.99h-2.5v-3.99h2.5v-3.99h-2.5v-3.99h2.5v-3.99h-2.5v-3.99h2.5v-3.99h-2.5v-3.99h2.5v-3.99h-2.5v-3.99h2.5v-3.99h-2.5v-3.98h2.5v-3.99h-2.5v-3.99h2.5v-3.99h-2.5v-3.99h2.5v-3.99h-2.5v-3.99h2.5v-3.99h-2.5v-3.99h2.5v-3.99h-2.5v-3.48h2.137v-.51h.363v-1.99h3.911v2.5h4.274v-2.5h4.274v2.5h4.274v-2.5h4.274v2.5h2.137c.663 0 1.324 0 1.985.01l.023-2.5c1.337.01 2.671.03 4.002.07l-.069 2.5q1.974.06 3.938.15l.115-2.5c1.336.06 2.668.13 3.997.22l-.161 2.49q1.976.135 3.941.3l.207-2.5c1.326.11 2.649.24 3.968.37l-.254 2.49c1.316.13 2.629.28 3.937.44l.3-2.48q1.986.24 3.961.51l-.346 2.48c1.304.18 2.605.38 3.902.58l.393-2.47c1.319.21 2.635.43 3.947.67l-.439 2.46c1.296.23 2.588.47 3.876.73l.485-2.45q1.964.39 3.915.81l-.531 2.44c1.289.28 2.573.57 3.853.88l.577-2.43c1.296.3 2.586.62 3.872.95l-.623 2.42c1.279.33 2.554.67 3.823 1.03l.669-2.41c1.284.35 2.564.72 3.839 1.1l-.714 2.4c1.263.37 2.52.76 3.773 1.16l.758-2.38c1.272.4 2.539.82 3.8 1.25l-.803 2.36c1.246.43 2.488.86 3.724 1.31l.848-2.35c1.255.45 2.505.91 3.749 1.39l-.892 2.33c1.231.47 2.456.95 3.676 1.45l.936-2.32q1.853.75 3.688 1.53l-.979 2.3c1.214.52 2.421 1.04 3.623 1.58l1.022-2.28c1.216.55 2.426 1.1 3.63 1.67l-1.065 2.26c1.192.56 2.378 1.13 3.558 1.72l1.107-2.25c1.196.6 2.385 1.2 3.568 1.81l-1.15 2.22c1.169.6 2.332 1.22 3.488 1.85l1.19-2.2c1.173.63 2.34 1.28 3.499 1.94l-1.232 2.17q1.72.975 3.419 1.98l1.272-2.15c1.147.68 2.287 1.36 3.42 2.06l-1.312 2.13c1.122.69 2.236 1.39 3.344 2.11l1.352-2.11q1.68 1.08 3.34 2.19l-1.391 2.08c1.095.73 2.183 1.48 3.263 2.23l1.429-2.05q1.64 1.14 3.258 2.31l-1.468 2.03c1.067.77 2.125 1.55 3.176 2.35l1.505-2c1.064.8 2.121 1.61 3.17 2.44l-1.542 1.96c1.037.82 2.065 1.64 3.086 2.47l1.578-1.94q1.55 1.26 3.077 2.55l-1.614 1.91q1.509 1.275 2.993 2.58l1.649-1.88c1.001.88 1.994 1.77 2.979 2.66l-1.684 1.85c.973.89 1.939 1.78 2.895 2.69l1.718-1.82c.968.92 1.927 1.84 2.878 2.78l-1.751 1.78q1.41 1.38 2.793 2.79l1.784-1.75q1.4 1.425 2.773 2.88l-1.816 1.72c.905.95 1.801 1.92 2.688 2.89l1.848-1.68c.897.98 1.785 1.98 2.663 2.98l-1.879 1.65c.869.99 1.728 1.98 2.578 2.99l1.91-1.61c.86 1.01 1.71 2.04 2.551 3.07l-1.939 1.58q1.247 1.53 2.465 3.09l1.968-1.54c.821 1.04 1.633 2.1 2.436 3.16l-1.997 1.51q1.188 1.575 2.348 3.18l2.024-1.47a186 186 0 0 1 2.315 3.26l-2.051 1.42c.753 1.09 1.496 2.17 2.229 3.27l2.077-1.39c.741 1.1 1.471 2.22 2.192 3.34l-2.103 1.35c.712 1.11 1.413 2.22 2.105 3.34l2.128-1.31a188 188 0 0 1 2.065 3.42l-2.152 1.27q1.005 1.71 1.978 3.42l2.176-1.23c.656 1.16 1.302 2.33 1.937 3.5l-2.198 1.19c.626 1.15 1.242 2.32 1.847 3.49l2.22-1.15c.613 1.18 1.214 2.37 1.805 3.56l-2.241 1.11c.582 1.18 1.155 2.37 1.716 3.56l2.262-1.07q.85 1.815 1.668 3.63l-2.282 1.03c.539 1.2 1.066 2.41 1.583 3.62l2.3-.98q.781 1.83 1.53 3.69l-2.319.93c.493 1.22.974 2.45 1.445 3.68l2.335-.89q.712 1.86 1.392 3.75l-2.352.85q.669 1.845 1.303 3.72l2.367-.8c.428 1.26.845 2.52 1.25 3.8l-2.382.76c.399 1.25.786 2.5 1.162 3.77l2.396-.72q.57 1.92 1.105 3.84l-2.409.67c.352 1.27.693 2.55 1.021 3.82l2.422-.62q.496 1.935.957 3.87l-2.433.58c.304 1.28.596 2.56.876 3.85l2.443-.53c.283 1.3.554 2.61.813 3.92l-2.452.48c.254 1.29.498 2.58.729 3.88l2.461-.44c.234 1.31.456 2.63.666 3.95l-2.469.39q.31 1.95.583 3.9l2.476-.34q.276 1.965.517 3.96l-2.482.3q.237 1.965.439 3.93l2.487-.25c.134 1.32.257 2.64.367 3.97l-2.491.2c.109 1.32.206 2.63.291 3.95l2.495-.17c.086 1.33.16 2.67.221 4l-2.497.12q.09 1.965.145 3.93z"/><path fill="#A3A3A3" fill-opacity=".2" fill-rule="evenodd" d="M106.324 1548h236.433v-239.35h-25.332c-116.588 0-211.101 95.68-211.101 213.71zm0-516.65h236.433v239.35h-25.332c-116.588 0-211.101-95.68-211.101-213.7zm499.137 239.35H369.029v-239.35h25.332c116.587 0 211.1 95.68 211.1 213.71zm-764.758 0H80.054v-239.35H54.41c-118.027 0-213.707 95.68-213.707 213.71z" clip-rule="evenodd"/></g></g><defs><linearGradient id="b" x1="720" x2="720" y1="1616" y2="1083" gradientUnits="userSpaceOnUse"><stop stop-color="#A4CF6B" stop-opacity=".75"/><stop offset="1" stop-color="#A4CF6B" stop-opacity="0"/></linearGradient><clipPath id="a"><path fill="#fff" d="M0 0h1440v1616H0z"/></clipPath></defs></svg>